<svg xmlns="http://www.w3.org/2000/svg" viewBox="0 0 24 24" fill="#181717">
  <path d="M12 0C5.37 0 0 5.37 0 12c0 5.3 3.438 9.8 8.205 11.385.6.112.82-.262.82-.583 0-.288-.01-1.05-.015-2.06-3.338.724-4.042-1.61-4.042-1.61-.546-1.387-1.333-1.757-1.333-1.757-1.09-.745.083-.73.083-.73 1.205.085 1.84 1.236 1.84 1.236 1.07 1.835 2.807 1.305 3.492.998.108-.775.418-1.305.76-1.605-2.665-.305-5.466-1.332-5.466-5.93 0-1.31.47-2.38 1.236-3.22-.124-.303-.536-1.524.117-3.176 0 0 1.008-.322 3.3 1.23.96-.267 1.98-.4 3-.405 1.02.005 2.04.138 3 .405 2.29-1.552 3.295-1.23 3.295-1.23.655 1.653.243 2.874.12 3.176.77.84 1.235 1.91 1.235 3.22 0 4.61-2.805 5.62-5.475 5.92.43.37.815 1.1.815 2.22 0 1.6-.015 2.88-.015 3.27 0 .32.21.7.825.58C20.565 21.795 24 17.295 24 12c0-6.63-5.37-12-12-12z"/>
</svg>
