<?xml version="1.0" standalone="no"?>
<!DOCTYPE svg PUBLIC "-//W3C//DTD SVG 20010904//EN"
 "http://www.w3.org/TR/2001/REC-SVG-20010904/DTD/svg10.dtd">
<svg version="1.0" xmlns="http://www.w3.org/2000/svg"
 width="512.000000pt" height="579.000000pt" viewBox="0 0 512.000000 579.000000"
 preserveAspectRatio="xMidYMid meet">

<g transform="translate(0.000000,579.000000) scale(0.100000,-0.100000)"
fill="#000000" stroke="none">
<path d="M1878 5712 c-37 -22 -60 -73 -66 -148 l-5 -62 -44 20 c-99 44 -183
-26 -183 -152 0 -65 18 -83 112 -110 40 -12 77 -25 81 -30 5 -4 -1 -38 -13
-76 -29 -95 -65 -283 -85 -444 -9 -74 -19 -141 -21 -148 -2 -8 -28 4 -74 34
-289 187 -495 159 -568 -76 -26 -84 -22 -322 7 -460 46 -216 132 -422 230
-552 l42 -56 -7 -114 c-7 -121 6 -225 32 -266 12 -18 14 -39 9 -86 -19 -176
60 -370 167 -413 25 -10 54 -35 83 -72 89 -116 205 -206 338 -261 31 -13 57
-26 57 -29 -1 -3 -28 -26 -62 -51 -85 -63 -273 -251 -339 -340 -108 -145 -165
-262 -204 -414 l-22 -88 -13 68 c-43 235 -136 385 -282 459 -88 44 -162 58
-269 53 -112 -5 -194 -43 -268 -123 -122 -134 -134 -273 -29 -343 85 -56 182
-25 241 76 39 67 73 82 138 63 83 -25 116 -86 153 -284 14 -74 35 -160 46
-192 54 -157 164 -270 320 -329 52 -19 65 -30 101 -81 178 -258 494 -430 1059
-577 183 -48 202 -51 315 -51 192 1 386 54 431 117 11 15 36 48 57 74 l37 47
476 21 c271 13 494 27 519 34 67 19 94 54 107 138 l10 71 57 17 c153 44 278
142 336 266 56 119 62 251 22 493 -8 50 -15 107 -16 127 -1 51 -23 92 -65 117
-28 18 -37 31 -45 70 -25 117 -104 282 -199 416 -196 276 -455 470 -774 580
l-107 37 13 27 c8 14 17 59 21 99 7 67 9 74 37 88 46 24 35 55 -25 72 l-48 14
7 65 c5 51 14 77 38 110 28 40 31 54 34 128 5 115 -33 236 -103 330 -13 18
-24 50 -27 81 -6 59 -47 154 -113 255 l-46 70 12 87 c50 372 -162 952 -384
1052 -50 23 -134 26 -180 6 -88 -37 -199 -162 -268 -302 l-31 -62 -94 103
c-174 190 -370 362 -475 416 l-38 19 54 122 c30 68 55 131 55 140 0 25 -63 93
-104 112 -44 21 -123 20 -158 -2z m-173 -252 c-27 -12 -43 -12 -25 0 8 5 22 9
30 9 10 0 8 -3 -5 -9z m100 -50 c10 -11 16 -20 13 -20 -3 0 -13 9 -23 20 -10
11 -16 20 -13 20 3 0 13 -9 23 -20z m184 -124 c22 -8 63 -30 91 -48 l49 -32
-22 -24 c-55 -60 -322 -260 -333 -249 -2 2 10 56 26 121 33 131 71 210 109
231 33 18 31 18 80 1z m370 -375 c-114 -130 -372 -320 -570 -422 -40 -20 -42
-20 -59 -2 -16 16 -17 27 -6 115 6 53 14 99 16 101 3 3 53 34 112 70 121 74
263 179 353 261 l60 54 67 -65 67 -66 -40 -46z m209 -132 l42 -46 -25 -74
c-19 -54 -37 -85 -67 -116 -23 -24 -45 -43 -49 -43 -3 0 -9 16 -12 35 -8 46
-39 89 -78 105 l-31 13 88 88 c48 49 89 87 89 86 1 -1 20 -23 43 -48z m-564
-385 c-20 -29 -110 -79 -119 -65 -4 7 114 88 133 91 1 0 -5 -12 -14 -26z m866
-241 c29 -16 62 -40 73 -56 19 -25 20 -29 5 -43 -15 -15 -20 -15 -64 0 -26 9
-72 16 -101 16 -50 0 -57 -3 -103 -46 -71 -66 -102 -46 -65 43 46 109 146 143
255 86z m147 -219 c97 -60 164 -190 162 -318 -1 -97 -16 -127 -75 -148 -27
-10 -49 -18 -49 -18 0 124 -2 137 -25 178 l-25 43 -7 -26 c-11 -42 -37 -65
-75 -65 -55 0 -98 63 -74 108 16 29 14 34 -9 22 -37 -20 -62 -86 -58 -154 2
-33 8 -70 13 -81 8 -19 8 -19 -12 -2 -61 54 -101 233 -73 332 42 149 181 207
307 129z m-952 7 c83 -38 115 -111 42 -97 -103 19 -105 19 -149 -7 -24 -14
-58 -43 -76 -66 -35 -44 -52 -50 -72 -26 -15 18 -1 63 40 128 50 80 133 106
215 68z m133 -210 c50 -25 118 -100 142 -156 18 -42 40 -139 40 -177 0 -28
-18 -21 -25 10 -3 15 -14 38 -25 52 l-20 25 0 -23 c0 -30 -43 -72 -74 -72 -14
0 -37 10 -51 23 -28 24 -35 55 -21 97 8 24 8 24 -15 9 -42 -27 -60 -76 -57
-150 4 -85 43 -152 106 -185 43 -23 43 -23 18 -30 -15 -3 -39 -3 -54 0 -15 4
-44 11 -64 15 -51 11 -99 50 -138 110 -43 68 -60 130 -60 220 0 195 147 309
298 232z m571 -404 c24 -29 -58 -67 -114 -53 -32 8 -33 39 -2 54 32 15 102 15
116 -1z m-149 -38 c0 -5 -7 -9 -15 -9 -15 0 -20 12 -9 23 8 8 24 -1 24 -14z
m322 -19 c77 -29 143 -82 178 -142 41 -71 39 -146 -6 -210 -26 -38 -125 -118
-145 -118 -4 0 -5 18 -2 40 5 37 2 43 -40 86 -41 40 -45 48 -35 69 17 37 1 90
-34 120 -40 34 -92 30 -144 -10 -51 -39 -102 -153 -76 -169 13 -8 26 6 56 57
26 45 75 87 103 87 19 0 43 -30 43 -55 0 -15 -15 -36 -42 -60 -35 -30 -41 -39
-31 -53 8 -13 22 -16 66 -14 47 3 57 1 66 -17 17 -31 13 -49 -15 -67 -23 -16
-29 -16 -82 -1 -31 8 -60 13 -64 11 -20 -13 -4 -34 43 -58 l51 -25 -54 -15
c-144 -40 -300 -51 -388 -27 -192 53 -216 260 -50 436 l52 54 44 -29 c125 -79
281 -57 379 52 25 28 45 56 45 64 0 19 20 18 82 -6z m743 -367 c-4 -10 -9 -43
-11 -73 -8 -87 -12 -99 -44 -115 -39 -20 -106 -20 -114 1 -11 29 -6 105 9 134
21 41 74 66 144 69 18 1 22 -3 16 -16z m-111 -335 c23 -33 20 -38 -23 -38 -55
0 -71 8 -71 36 0 21 5 24 39 24 30 0 44 -6 55 -22z m16 -124 c0 -37 -4 -39
-72 -28 -34 6 -38 10 -38 38 l0 31 55 -3 55 -4 0 -34z m220 -1016 c33 -17 68
-52 132 -133 48 -60 96 -117 105 -125 10 -8 26 -37 35 -64 17 -49 17 -50 -8
-79 -33 -40 -32 -95 5 -172 15 -33 37 -68 49 -78 15 -14 19 -27 15 -55 -3 -26
2 -47 16 -69 27 -43 128 -91 209 -99 l63 -7 -6 -46 c-15 -110 5 -105 -560
-129 -253 -10 -460 -19 -461 -18 -1 1 -4 17 -7 36 -5 33 -2 37 34 58 45 26 75
78 66 113 -11 42 -45 88 -79 105 -56 29 -140 29 -286 0 -138 -27 -226 -33
-237 -16 -4 6 -11 41 -16 77 -12 82 -43 140 -92 172 -46 30 -51 72 -12 103 36
28 50 61 69 158 29 148 59 189 124 174 44 -11 75 -30 146 -88 82 -67 124 -83
175 -67 20 6 85 52 144 101 197 164 280 196 377 148z"/>
<path d="M2854 3159 c-3 -6 0 -17 8 -25 13 -13 16 -13 27 0 7 8 10 20 6 26 -8
13 -32 13 -41 -1z"/>
<path d="M2953 3094 c-7 -20 17 -37 34 -23 15 13 6 39 -13 39 -8 0 -17 -7 -21
-16z"/>
<path d="M2407 3056 c-8 -20 20 -43 35 -28 14 14 3 42 -16 42 -7 0 -16 -6 -19
-14z"/>
<path d="M2353 2954 c-8 -21 13 -42 28 -27 13 13 5 43 -11 43 -6 0 -13 -7 -17
-16z"/>
<path d="M2495 2960 c-4 -7 -3 -16 3 -22 14 -14 45 -2 40 15 -6 16 -34 21 -43
7z"/>
<path d="M4010 4914 c-103 -28 -207 -115 -231 -193 -10 -33 -10 -50 1 -83 25
-86 123 -187 166 -172 10 4 38 24 61 45 46 42 91 55 160 45 55 -7 83 11 83 55
0 37 -85 277 -106 300 -20 23 -58 23 -134 3z"/>
<path d="M450 3993 c-74 -30 -113 -101 -114 -210 -1 -93 15 -113 87 -113 65 0
128 -30 168 -81 30 -38 59 -48 86 -31 17 11 143 278 143 303 0 28 -49 72 -118
106 -46 23 -71 28 -146 30 -50 1 -98 0 -106 -4z"/>
<path d="M4753 3580 c-32 -13 -43 -42 -37 -96 8 -60 -10 -106 -60 -162 -40
-44 -45 -71 -18 -95 22 -20 268 -107 303 -107 86 0 155 259 99 375 -33 69 -85
95 -186 94 -43 0 -89 -4 -101 -9z"/>
<path d="M203 2553 c-38 -7 -54 -41 -47 -95 8 -62 -14 -122 -61 -168 -36 -35
-44 -65 -22 -92 10 -13 193 -83 293 -112 73 -22 152 178 130 328 -8 54 -53
112 -103 132 -30 13 -139 17 -190 7z"/>
</g>
</svg>
